<svg width="32" height="32" xmlns="http://www.w3.org/2000/svg">

 <g>
  <title>background</title>
  <rect fill="none" id="canvas_background" height="602" width="802" y="-1" x="-1"/>
 </g>
 <g>
  <title>Layer 1</title>
  <path id="svg_1" fill="#4834d4" d="m12.276,31.597c0,0.223 0.18,0.403 0.403,0.403l5.745,0c0.223,0 0.403,-0.18 0.403,-0.403l0,-15.723l4.165,0c0.21,0 0.384,-0.16 0.402,-0.37l0.4,-4.736a0.403,0.403 0 0 0 -0.401,-0.437l-4.566,0l0,-3.361c0,-0.788 0.638,-1.427 1.426,-1.427l3.21,0c0.223,0 0.403,-0.18 0.403,-0.403l0,-4.737a0.403,0.403 0 0 0 -0.403,-0.403l-5.423,0a5.763,5.763 0 0 0 -5.763,5.763l0,4.568l-2.874,0a0.403,0.403 0 0 0 -0.403,0.402l0,4.738c0,0.223 0.18,0.403 0.403,0.403l2.873,0l0,15.723z" clip-rule="evenodd" fill-rule="evenodd"/>
 </g>
</svg>