<svg width="32" height="32" xmlns="http://www.w3.org/2000/svg">

 <g>
  <title>background</title>
  <rect fill="none" id="canvas_background" height="602" width="802" y="-1" x="-1"/>
 </g>
 <g>
  <title>Layer 1</title>
  <path id="svg_1" fill="#4834d4" d="m28.981,22.361a6.62,6.62 0 0 1 -6.62,6.62l-12.722,0a6.62,6.62 0 0 1 -6.62,-6.62l0,-12.723a6.62,6.62 0 0 1 6.62,-6.62l12.722,0a6.62,6.62 0 0 1 6.62,6.62l0,12.723zm3.019,-12.723c0,-5.323 -4.316,-9.638 -9.64,-9.638l-12.72,0c-5.325,0 -9.64,4.315 -9.64,9.638l0,12.723c0,5.323 4.316,9.639 9.64,9.639l12.72,0a9.64,9.64 0 0 0 9.64,-9.64l0,-12.722zm-15.946,11.63a5.068,5.068 0 0 1 -5.062,-5.062a5.068,5.068 0 0 1 5.062,-5.062a5.067,5.067 0 0 1 5.062,5.062a5.067,5.067 0 0 1 -5.062,5.062zm0,-12.964c-4.357,0 -7.902,3.545 -7.902,7.902c0,4.358 3.545,7.902 7.902,7.902c4.358,0 7.903,-3.544 7.903,-7.902c0,-4.357 -3.545,-7.902 -7.903,-7.902zm8.364,-2.413a1.881,1.881 0 1 0 0,3.763a1.881,1.881 0 0 0 0,-3.763z"/>
 </g>
</svg>