<svg width="32" height="32" xmlns="http://www.w3.org/2000/svg">

 <g>
  <title>background</title>
  <rect fill="none" id="canvas_background" height="602" width="802" y="-1" x="-1"/>
 </g>
 <g>
  <title>Layer 1</title>
  <path id="svg_1" fill="#4834d4" d="m31.88,6.16c-1.017,0.46 -2.136,0.739 -3.232,0.923c0.52,-0.088 1.288,-1.03 1.595,-1.412c0.468,-0.581 0.857,-1.245 1.076,-1.96c0.028,-0.056 0.05,-0.126 -0.006,-0.169c-0.07,-0.027 -0.116,-0.013 -0.172,0.015a16.517,16.517 0 0 1 -3.839,1.47a0.258,0.258 0 0 1 -0.265,-0.07a3.102,3.102 0 0 0 -0.335,-0.344a6.795,6.795 0 0 0 -1.86,-1.14a6.477,6.477 0 0 0 -2.853,-0.46a6.826,6.826 0 0 0 -2.707,0.765a6.982,6.982 0 0 0 -2.182,1.782a6.703,6.703 0 0 0 -1.304,2.612c-0.224,0.92 -0.206,1.828 -0.07,2.757c0.022,0.154 0.008,0.175 -0.131,0.154c-5.276,-0.783 -9.646,-2.671 -13.195,-6.713c-0.154,-0.176 -0.238,-0.176 -0.364,0.013c-1.553,2.328 -0.8,6.067 1.14,7.905c0.259,0.245 0.524,0.49 0.811,0.713c-0.104,0.022 -1.395,-0.118 -2.546,-0.713c-0.154,-0.097 -0.231,-0.041 -0.245,0.133a3.99,3.99 0 0 0 0.042,0.756c0.298,2.36 1.932,4.542 4.17,5.394c0.266,0.111 0.559,0.21 0.846,0.258c-0.51,0.112 -1.035,0.192 -2.497,0.078c-0.182,-0.036 -0.252,0.055 -0.182,0.23c1.098,2.995 3.47,3.886 5.246,4.393c0.238,0.042 0.476,0.042 0.714,0.098c-0.014,0.021 -0.028,0.021 -0.042,0.042c-0.59,0.898 -2.632,1.567 -3.583,1.9c-1.73,0.604 -3.613,0.876 -5.442,0.696c-0.292,-0.043 -0.354,-0.04 -0.433,0c-0.08,0.05 -0.01,0.12 0.084,0.195c0.37,0.245 0.748,0.462 1.133,0.672a17.95,17.95 0 0 0 3.638,1.455c6.537,1.805 13.9,0.479 18.81,-4.398c3.853,-3.83 5.204,-9.111 5.204,-14.4c0,-0.206 0.244,-0.32 0.39,-0.43c1.003,-0.753 1.8,-1.655 2.548,-2.662c0.168,-0.226 0.158,-0.427 0.158,-0.51l0,-0.028c0,-0.084 0.01,-0.059 -0.12,0z" clip-rule="evenodd" fill-rule="evenodd"/>
 </g>
</svg>